<svg width="237" height="81" viewBox="0 0 237 81" fill="none" xmlns="http://www.w3.org/2000/svg">
<path d="M40.3692 0C62.6645 0 80.7383 18.0739 80.7383 40.3691C80.7383 62.6644 62.6645 80.7383 40.3692 80.7383C18.0739 80.7383 0 62.6644 0 40.3691C0 18.0739 18.0739 0 40.3692 0Z" fill="#F26F53"/>
<path d="M94.7469 0C117.042 0 135.116 18.0739 135.116 40.3691C135.116 62.6644 117.042 80.7383 94.7469 80.7383C72.4516 80.7383 54.3777 62.6644 54.3777 40.3691C54.3777 18.0739 72.4516 0 94.7469 0Z" fill="#F6F385"/>
<path d="M144.184 0C166.479 0 184.553 18.0739 184.553 40.3691C184.553 62.6644 166.479 80.7383 144.184 80.7383C121.888 80.7383 103.814 62.6644 103.814 40.3691C103.814 18.0739 121.888 0 144.184 0Z" fill="white"/>
<path d="M196.091 0C218.386 0 236.46 18.0739 236.46 40.3691C236.46 62.6644 218.386 80.7383 196.091 80.7383C173.796 80.7383 155.722 62.6644 155.722 40.3691C155.722 18.0739 173.796 0 196.091 0Z" fill="#1A1A1A"/>
</svg>
