<svg width="56" height="70" viewBox="0 0 56 70" fill="none" xmlns="http://www.w3.org/2000/svg">
<path d="M9.87646 5.0531V16.6304H21.4538L9.87646 5.0531Z" fill="black"/>
<path d="M9.05615 5.05307C9.05615 6.35464 9.05615 7.6562 9.05615 8.96323C9.05615 11.0414 9.05615 13.1195 9.05615 15.1976C9.05615 15.6789 9.05615 16.1546 9.05615 16.6359C9.05615 17.0789 9.4335 17.4562 9.87646 17.4562C11.178 17.4562 12.4796 17.4562 13.7866 17.4562C15.8647 17.4562 17.9429 17.4562 20.021 17.4562C20.5022 17.4562 20.978 17.4562 21.4593 17.4562C22.1702 17.4562 22.5421 16.5593 22.039 16.0562C20.7319 14.7492 19.4194 13.4367 18.1124 12.1296C16.0397 10.057 13.9671 7.98432 11.8999 5.91714C11.4241 5.44135 10.9429 4.9601 10.4671 4.48432C10.1554 4.1726 9.61943 4.1726 9.30771 4.48432C8.996 4.79604 8.996 5.33198 9.30771 5.6437C10.6147 6.95073 11.9272 8.26323 13.2343 9.57026C15.3069 11.6429 17.3796 13.7156 19.4468 15.7828C19.9226 16.2585 20.4038 16.7398 20.8796 17.2156C21.071 16.7507 21.2679 16.2804 21.4593 15.8156C20.1577 15.8156 18.8562 15.8156 17.5491 15.8156C15.471 15.8156 13.3929 15.8156 11.3147 15.8156C10.8335 15.8156 10.3577 15.8156 9.87646 15.8156C10.1499 16.089 10.4233 16.3624 10.6968 16.6359C10.6968 15.3343 10.6968 14.0328 10.6968 12.7257C10.6968 10.6476 10.6968 8.56948 10.6968 6.49135C10.6968 6.0101 10.6968 5.53432 10.6968 5.05307C10.6968 4.62651 10.3194 4.21089 9.87646 4.23276C9.42803 4.25464 9.05615 4.5937 9.05615 5.05307Z" fill="black"/>
<path d="M14.6726 14.3827C15.1866 13.896 15.728 13.4366 16.2858 12.9991C16.1546 13.0976 16.0288 13.196 15.8976 13.2999C17.3687 12.1624 18.9765 11.2218 20.6882 10.4999C20.5351 10.5655 20.3819 10.6311 20.2288 10.6913C21.9569 9.96943 23.7671 9.47177 25.621 9.22021C25.4515 9.24209 25.2819 9.26396 25.1124 9.29131C27.0265 9.03427 28.9679 9.03427 30.8819 9.29131C30.7124 9.26943 30.5429 9.24756 30.3733 9.22021C32.2272 9.47177 34.0374 9.96943 35.7601 10.6913C35.6069 10.6257 35.4538 10.5601 35.3007 10.4999C37.0069 11.2218 38.6093 12.1624 40.0749 13.289C39.9437 13.1905 39.8179 13.0921 39.6866 12.9882C41.1194 14.1038 42.4101 15.389 43.5202 16.8218C43.4218 16.6905 43.3233 16.5647 43.2194 16.4335C44.3515 17.8991 45.2866 19.5069 46.0085 21.2077C45.9429 21.0546 45.8772 20.9015 45.8171 20.7483C46.539 22.471 47.0312 24.2866 47.2882 26.1351C47.2663 25.9655 47.2444 25.796 47.2171 25.6265C47.4741 27.5405 47.4741 29.4819 47.2171 31.3905C47.239 31.221 47.2608 31.0515 47.2882 30.8819C47.0366 32.7358 46.539 34.546 45.8171 36.2686C45.8827 36.1155 45.9483 35.9624 46.0085 35.8093C45.2866 37.5155 44.346 39.1179 43.2194 40.5835C43.3179 40.4522 43.4163 40.3265 43.5202 40.1952C42.4046 41.628 41.1194 42.9186 39.6866 44.0288C39.8179 43.9304 39.9437 43.8319 40.0749 43.728C38.6093 44.8601 37.0015 45.7952 35.3007 46.5171C35.4538 46.4515 35.6069 46.3858 35.7601 46.3257C34.0374 47.0476 32.2218 47.5397 30.3733 47.7968C30.5429 47.7749 30.7124 47.753 30.8819 47.7257C28.9679 47.9827 27.0265 47.9827 25.1179 47.7257C25.2874 47.7476 25.4569 47.7694 25.6265 47.7968C23.7726 47.5452 21.9624 47.0476 20.2397 46.3257C20.3929 46.3913 20.546 46.4569 20.6991 46.5171C18.9929 45.7952 17.3905 44.8546 15.9249 43.728C16.0562 43.8265 16.1819 43.9249 16.3132 44.0288C14.8804 42.9132 13.5897 41.628 12.4796 40.1952C12.578 40.3265 12.6765 40.4522 12.7804 40.5835C11.6483 39.1179 10.7132 37.5101 9.99131 35.8093C10.0569 35.9624 10.1226 36.1155 10.1827 36.2686C9.46084 34.546 8.96865 32.7304 8.71162 30.8819C8.7335 31.0515 8.75537 31.221 8.78272 31.3905C8.65693 30.4335 8.59131 29.471 8.59131 28.5085C8.59131 27.5077 7.71084 26.5507 6.67725 26.5944C5.64365 26.6382 4.76318 27.4366 4.76318 28.5085C4.76865 32.6101 5.8624 36.6952 7.92959 40.2335C9.93115 43.6569 12.8351 46.5663 16.2585 48.5733C19.7804 50.6405 23.8546 51.7452 27.9397 51.7616C32.0413 51.778 36.1374 50.6897 39.6812 48.628C43.1101 46.6374 46.0249 43.739 48.0483 40.3265C50.1265 36.8101 51.2421 32.7413 51.2694 28.6616C51.2968 24.5601 50.2194 20.4585 48.1741 16.9038C46.1944 13.464 43.3069 10.5436 39.8999 8.51474C36.3944 6.42568 32.3312 5.29912 28.2515 5.25537C23.4882 5.20615 18.6757 6.6499 14.7765 9.40068C13.7976 10.0897 12.8569 10.8444 11.9874 11.6647C11.2601 12.3538 11.2382 13.6882 11.9874 14.3718C12.7476 15.0991 13.896 15.1155 14.6726 14.3827Z" fill="black"/>
</svg>
