<svg width="53" height="55" viewBox="0 0 53 55" fill="none" xmlns="http://www.w3.org/2000/svg">
<path d="M26.5 0C11.8841 0 0 12.1982 0 27.2C0 42.2022 11.8841 54.4 26.5 54.4C41.1159 54.4 53 42.2022 53 27.2C53 12.1982 41.1159 0 26.5 0ZM26.5 3.4C39.3257 3.4 49.6875 14.0355 49.6875 27.2C49.6875 40.3645 39.3257 51 26.5 51C13.6743 51 3.3125 40.3645 3.3125 27.2C3.3125 14.0355 13.6743 3.4 26.5 3.4ZM16.5625 13.6066C15.4181 13.6066 14.2737 13.9097 13.25 14.5164C11.2025 15.7295 9.9375 17.9734 9.9375 20.4C9.9341 20.6232 9.97357 20.845 10.0537 21.0526C10.1338 21.2602 10.2529 21.4495 10.4043 21.6099C10.5557 21.7702 10.7364 21.8983 10.936 21.987C11.1357 22.0757 11.3504 22.1231 11.5679 22.1266C11.7897 22.1301 12.01 22.0879 12.2157 22.0024C12.4213 21.9169 12.6082 21.7898 12.765 21.6288C12.9219 21.4678 13.0457 21.276 13.129 21.0649C13.2123 20.8538 13.2535 20.6277 13.25 20.4C13.25 19.1828 13.8791 18.0668 14.9062 17.4582C15.9334 16.8496 17.1916 16.8496 18.2188 17.4582C19.2459 18.0668 19.875 19.1828 19.875 20.4C19.8719 20.6253 19.9124 20.8489 19.9943 21.058C20.0761 21.267 20.1976 21.4573 20.3517 21.6177C20.5058 21.7781 20.6895 21.9055 20.892 21.9925C21.0944 22.0794 21.3118 22.1242 21.5312 22.1242C21.7507 22.1242 21.9681 22.0794 22.1705 21.9925C22.373 21.9055 22.5567 21.7781 22.7108 21.6177C22.8649 21.4573 22.9864 21.267 23.0682 21.058C23.1501 20.8489 23.1906 20.6253 23.1875 20.4C23.1875 17.9734 21.9225 15.7295 19.875 14.5164C18.8513 13.9097 17.7069 13.6066 16.5625 13.6066ZM36.4375 13.6066C35.2931 13.6066 34.1487 13.9097 33.125 14.5164C31.0775 15.7295 29.8125 17.9734 29.8125 20.4C29.8091 20.6232 29.8486 20.845 29.9287 21.0526C30.0088 21.2602 30.1279 21.4495 30.2793 21.6099C30.4307 21.7702 30.6114 21.8983 30.811 21.987C31.0107 22.0757 31.2254 22.1231 31.4429 22.1266C31.6647 22.1301 31.885 22.0879 32.0907 22.0024C32.2963 21.9169 32.4832 21.7898 32.64 21.6288C32.7969 21.4678 32.9207 21.276 33.004 21.0649C33.0873 20.8538 33.1285 20.6277 33.125 20.4C33.125 19.1828 33.7541 18.0668 34.7812 17.4582C35.8084 16.8496 37.0666 16.8496 38.0938 17.4582C39.1209 18.0668 39.75 19.1828 39.75 20.4C39.7469 20.6253 39.7874 20.8489 39.8693 21.058C39.9511 21.267 40.0726 21.4573 40.2267 21.6177C40.3808 21.7781 40.5645 21.9055 40.767 21.9925C40.9694 22.0794 41.1868 22.1242 41.4062 22.1242C41.6257 22.1242 41.8431 22.0794 42.0455 21.9925C42.248 21.9055 42.4317 21.7781 42.5858 21.6177C42.7399 21.4573 42.8614 21.267 42.9432 21.058C43.0251 20.8489 43.0656 20.6253 43.0625 20.4C43.0625 17.9734 41.7975 15.7295 39.75 14.5164C38.7263 13.9097 37.5819 13.6066 36.4375 13.6066ZM13.25 30.6C13.2496 32.9877 13.8616 35.3335 15.0245 37.4014C16.1875 39.4694 17.8604 41.1866 19.875 42.3805C21.8893 43.5741 24.1741 44.2025 26.5 44.2025C28.8259 44.2025 31.1107 43.5741 33.125 42.3805C35.1396 41.1866 36.8125 39.4694 37.9755 37.4014C39.1384 35.3335 39.7504 32.9877 39.75 30.6H13.25Z" fill="#1A1A1A"/>
</svg>
